<?xml version="1.0" standalone="no"?>
<!DOCTYPE svg PUBLIC "-//W3C//DTD SVG 20010904//EN"
 "http://www.w3.org/TR/2001/REC-SVG-20010904/DTD/svg10.dtd">
<svg version="1.0" xmlns="http://www.w3.org/2000/svg"
 width="512.000000pt" height="512.000000pt" viewBox="0 0 512.000000 512.000000"
 preserveAspectRatio="xMidYMid meet">
<metadata>
Created by potrace 1.14, written by Peter Selinger 2001-2017
</metadata>
<g transform="translate(0.000000,512.000000) scale(0.100000,-0.100000)"
fill="#000000" stroke="none">
<path d="M2425 4794 c-188 -13 -434 -63 -610 -124 -130 -45 -374 -167 -488
-243 -341 -230 -596 -520 -772 -882 -161 -328 -228 -620 -228 -985 0 -365 67
-657 228 -985 220 -452 568 -800 1020 -1020 231 -113 433 -175 684 -211 156
-23 447 -23 605 0 746 107 1374 561 1701 1231 161 328 228 620 228 985 0 365
-67 657 -228 985 -365 749 -1101 1222 -1940 1248 -77 3 -167 3 -200 1z m-582
-1118 c18 -7 127 -110 243 -227 226 -229 242 -252 229 -329 -4 -22 -15 -50
-25 -63 l-19 -24 83 -82 83 -82 38 43 c133 150 509 527 576 578 194 146 421
213 642 190 50 -5 100 -16 113 -25 35 -23 47 -59 31 -95 -6 -16 -219 -246
-472 -511 -253 -265 -478 -502 -499 -527 l-39 -44 427 -427 c452 -452 450
-449 418 -506 -6 -11 -67 -76 -136 -144 -114 -113 -129 -125 -161 -125 -34 0
-59 23 -463 426 l-427 427 -410 -405 c-225 -223 -423 -414 -440 -424 -33 -22
-106 -27 -149 -10 -14 5 -63 47 -110 92 -65 64 -87 92 -95 124 -11 41 -10 50
12 108 7 18 164 165 436 409 234 209 433 386 441 394 13 11 -3 31 -114 142
l-129 130 -24 -19 c-32 -25 -85 -33 -135 -19 -36 9 -76 43 -257 223 -207 205
-248 255 -234 293 13 38 46 63 82 63 33 0 51 -15 243 -207 l208 -208 55 55 55
54 -210 211 c-232 233 -236 240 -181 296 33 32 59 36 99 15 15 -8 114 -102
219 -208 l193 -194 52 53 53 53 -208 208 c-192 192 -207 210 -207 243 0 41 30
75 78 88 1 1 17 -5 35 -13z"/>
<path d="M3400 3459 c-95 -25 -186 -67 -265 -124 -53 -37 -220 -205 -592 -595
l-73 -76 48 -45 c26 -24 61 -57 78 -72 l30 -27 365 382 c200 211 406 427 458
481 l94 97 -34 -1 c-19 0 -68 -9 -109 -20z"/>
<path d="M2096 2859 l-50 -50 131 -131 c83 -83 135 -128 143 -123 8 5 2 17
-20 40 -38 40 -42 80 -10 125 l23 32 -79 79 c-43 43 -81 79 -84 79 -3 0 -27
-23 -54 -51z"/>
<path d="M1947 1992 l-498 -446 48 -48 c26 -26 51 -47 54 -46 4 2 222 214 484
472 l476 469 -22 23 c-13 13 -27 24 -33 23 -6 0 -235 -201 -509 -447z"/>
<path d="M2655 2300 l-50 -50 385 -385 385 -385 52 52 53 53 -382 382 c-211
211 -385 383 -388 383 -3 0 -28 -23 -55 -50z"/>
</g>
</svg>
